<svg width="20" height="22" fill="none" xmlns="http://www.w3.org/2000/svg"><path fill-rule="evenodd" clip-rule="evenodd" d="M0 5a1 1 0 011-1h18a1 1 0 110 2H1a1 1 0 01-1-1z" fill="currentColor"/><path fill-rule="evenodd" clip-rule="evenodd" d="M8 2a1 1 0 00-1 1v1h6V3a1 1 0 00-1-1H8zm7 2V3a3 3 0 00-3-3H8a3 3 0 00-3 3v1H3a1 1 0 00-1 1v14a3 3 0 003 3h10a3 3 0 003-3V5a1 1 0 00-1-1h-2zM4 6v13a1 1 0 001 1h10a1 1 0 001-1V6H4z" fill="currentColor"/><path fill-rule="evenodd" clip-rule="evenodd" d="M8 9a1 1 0 011 1v6a1 1 0 11-2 0v-6a1 1 0 011-1zM12 9a1 1 0 011 1v6a1 1 0 11-2 0v-6a1 1 0 011-1z" fill="currentColor"/></svg>
